<?xml version="1.0" encoding="UTF-8" standalone="no"?>
<svg
   xmlns:dc="http://purl.org/dc/elements/1.1/"
   xmlns:cc="http://creativecommons.org/ns#"
   xmlns:rdf="http://www.w3.org/1999/02/22-rdf-syntax-ns#"
   xmlns:svg="http://www.w3.org/2000/svg"
   xmlns="http://www.w3.org/2000/svg"
   xmlns:sodipodi="http://sodipodi.sourceforge.net/DTD/sodipodi-0.dtd"
   xmlns:inkscape="http://www.inkscape.org/namespaces/inkscape"
   width="500pt"
   height="131pt"
   viewBox="0 0 500 131"
   version="1.1"
   id="svg2"
   inkscape:version="0.91 r13725"
   sodipodi:docname="banner.svg">
  <title
     id="title3359">pyLoad Banner</title>
  <metadata
     id="metadata31">
    <rdf:RDF>
      <cc:Work
         rdf:about="">
        <dc:format>image/svg+xml</dc:format>
        <dc:type
           rdf:resource="http://purl.org/dc/dcmitype/StillImage" />
        <dc:title>pyLoad Banner</dc:title>
        <dc:publisher>
          <cc:Agent>
            <dc:title>pyLoad team</dc:title>
          </cc:Agent>
        </dc:publisher>
        <dc:rights>
          <cc:Agent>
            <dc:title>pyLoad team</dc:title>
          </cc:Agent>
        </dc:rights>
        <dc:creator>
          <cc:Agent>
            <dc:title>pyLoad team</dc:title>
          </cc:Agent>
        </dc:creator>
        <dc:subject>
          <rdf:Bag>
            <rdf:li>pyload banner</rdf:li>
          </rdf:Bag>
        </dc:subject>
        <dc:description>Official pyLoad banner</dc:description>
        <dc:date>03/12/2016</dc:date>
      </cc:Work>
    </rdf:RDF>
  </metadata>
  <defs
     id="defs29" />
  <sodipodi:namedview
     pagecolor="#ffffff"
     bordercolor="#666666"
     borderopacity="1"
     objecttolerance="10"
     gridtolerance="10"
     guidetolerance="10"
     inkscape:pageopacity="0"
     inkscape:pageshadow="2"
     inkscape:window-width="1202"
     inkscape:window-height="777"
     id="namedview27"
     showgrid="false"
     inkscape:zoom="0.6288"
     inkscape:cx="109.73282"
     inkscape:cy="81.875"
     inkscape:window-x="70"
     inkscape:window-y="-8"
     inkscape:window-maximized="1"
     inkscape:current-layer="svg2" />
  <g
     id="#000000fe">
    <path
       fill="#000000"
       opacity="1.00"
       d=" M 4.58 12.47 C 8.12 5.27 16.04 0.88 23.97 0.94 C 44.97 0.83 65.97 0.66 86.97 0.85 C 90.16 0.69 93.34 0.96 96.48 1.59 C 102.85 0.61 109.63 0.19 115.87 2.13 C 124.47 5.62 127.01 15.60 128.52 23.85 C 131.12 35.74 129.12 48.53 122.92 59.00 C 120.59 62.84 116.55 65.63 112.05 66.11 C 106.93 66.58 101.78 66.16 96.66 66.38 C 96.94 71.05 97.14 75.76 96.72 80.43 C 95.84 84.77 93.60 88.68 91.54 92.56 C 84.67 104.79 76.91 116.51 68.90 128.01 C 67.52 130.66 63.51 130.54 62.12 127.97 C 53.64 116.66 45.28 105.23 37.80 93.22 C 35.40 89.11 32.68 85.03 31.55 80.35 C 30.98 75.61 31.42 70.83 31.30 66.07 C 24.29 66.26 16.26 67.38 10.39 62.63 C 3.24 57.02 1.82 47.38 0.57 38.95 C -0.27 30.02 0.95 20.70 4.58 12.47 M 16.05 5.10 C 11.00 7.17 7.11 11.62 5.52 16.83 C 2.95 25.32 2.01 34.42 3.81 43.17 C 5.02 49.83 6.87 57.33 12.90 61.29 C 18.21 64.83 24.88 63.31 30.86 63.59 C 30.92 58.72 30.71 53.85 30.99 48.98 C 31.44 41.25 37.83 34.87 45.02 32.75 C 50.23 31.40 55.66 32.07 60.98 31.97 C 67.32 31.85 73.66 31.91 80.00 31.87 C 86.76 32.15 93.18 26.98 94.58 20.41 C 95.66 14.87 94.61 9.20 95.15 3.61 C 73.43 3.49 51.72 3.55 30.00 3.55 C 25.33 3.57 20.43 3.12 16.05 5.10 M 98.20 3.57 C 98.12 8.73 98.49 13.92 98.01 19.07 C 96.88 27.90 88.80 35.22 79.90 35.46 C 69.60 35.56 59.29 35.42 48.99 35.49 C 41.16 35.33 34.07 42.17 33.86 49.98 C 33.73 59.00 33.87 68.03 33.80 77.05 C 33.68 81.91 36.73 86.01 38.95 90.08 C 47.07 103.31 56.22 115.88 65.66 128.19 C 74.05 115.88 82.47 103.56 89.67 90.51 C 91.42 87.11 93.36 83.74 94.23 79.99 C 94.64 75.82 94.30 71.62 94.42 67.44 C 84.34 67.46 74.26 67.45 64.18 67.44 C 64.18 66.50 64.19 64.62 64.20 63.69 C 79.77 63.63 95.34 63.77 110.91 63.60 C 117.04 63.54 121.21 58.19 123.11 52.89 C 128.67 40.80 127.60 26.76 123.40 14.43 C 121.78 9.95 118.68 5.51 113.86 4.17 C 108.74 2.98 103.41 3.79 98.20 3.57 Z"
       id="path5" />
    <path
       fill="#000000"
       opacity="1.00"
       d=" M 263.26 14.94 C 266.60 14.88 269.93 14.87 273.27 14.90 C 273.32 38.16 273.26 61.43 273.30 84.69 C 286.81 84.66 300.32 84.67 313.83 84.68 C 313.82 87.40 313.82 90.13 313.82 92.85 C 296.97 92.85 280.11 92.83 263.26 92.86 C 263.24 66.89 263.25 40.91 263.26 14.94 Z"
       id="path7" />
    <path
       fill="#000000"
       opacity="1.00"
       d=" M 489.87 14.90 C 493.24 14.89 496.62 14.89 500.00 14.89 L 500.00 89.36 C 492.27 91.89 484.09 92.70 475.99 92.81 C 468.83 93.10 460.98 91.59 455.94 86.09 C 449.77 79.41 448.75 69.72 448.97 61.02 C 449.17 52.84 452.08 43.82 459.55 39.50 C 468.72 34.33 480.19 34.74 489.88 38.28 C 489.84 30.48 489.85 22.69 489.87 14.90 M 460.40 53.39 C 458.21 59.30 458.51 65.86 459.86 71.92 C 461.00 76.95 464.30 81.77 469.38 83.39 C 476.04 85.43 483.19 84.23 489.78 82.49 C 489.94 70.73 489.83 58.98 489.84 47.22 C 483.62 44.58 476.59 43.58 469.97 45.12 C 465.67 46.11 461.92 49.23 460.40 53.39 Z"
       id="path9" />
    <path
       fill="#000000"
       opacity="1.00"
       d=" M 140.65 37.95 C 150.67 36.19 160.96 34.87 171.10 36.17 C 178.21 37.11 185.21 41.05 188.40 47.67 C 192.15 55.47 192.05 64.58 190.52 72.93 C 189.17 80.11 184.92 87.11 178.02 90.11 C 169.44 93.88 159.31 93.65 150.66 90.16 C 150.67 97.96 150.68 105.76 150.65 113.56 C 147.30 113.55 143.96 113.55 140.61 113.54 C 140.66 88.35 140.58 63.15 140.65 37.95 M 150.87 45.32 C 150.36 57.25 150.84 69.25 150.64 81.21 C 157.14 84.14 164.82 85.29 171.63 82.74 C 176.54 80.88 179.67 76.07 180.70 71.08 C 181.89 65.41 182.06 59.32 180.20 53.77 C 178.46 48.49 173.33 44.88 167.89 44.36 C 162.22 43.85 156.44 44.10 150.87 45.32 Z"
       id="path11" />
    <path
       fill="#000000"
       opacity="1.00"
       d=" M 198.32 35.65 C 201.96 35.65 205.61 35.65 209.25 35.64 C 214.65 50.48 219.95 65.36 225.36 80.20 C 231.03 65.40 236.47 50.51 242.02 35.67 C 245.58 35.64 249.15 35.64 252.72 35.65 C 244.61 55.59 236.70 75.61 228.59 95.54 C 225.21 103.81 218.87 111.34 210.11 114.03 C 208.85 111.64 207.59 109.25 206.29 106.89 C 212.37 104.08 217.37 99.24 220.18 93.14 C 212.85 74.00 205.67 54.79 198.32 35.65 Z"
       id="path13" />
    <path
       fill="#000000"
       opacity="1.00"
       d=" M 339.51 36.75 C 348.68 34.76 359.28 35.02 367.11 40.76 C 374.20 46.12 376.16 55.55 376.22 63.97 C 376.22 72.21 374.54 81.39 367.96 87.02 C 361.15 92.75 351.59 93.39 343.11 92.39 C 335.48 91.56 327.98 87.14 324.91 79.88 C 321.23 71.36 321.18 61.51 323.38 52.59 C 325.27 44.81 331.67 38.46 339.51 36.75 M 344.33 44.34 C 338.25 45.29 333.83 50.60 332.76 56.47 C 331.70 62.63 331.61 69.22 333.79 75.16 C 335.50 79.96 339.95 83.58 345.00 84.29 C 350.59 85.18 357.10 84.51 361.18 80.18 C 365.27 75.92 366.02 69.67 366.15 64.03 C 366.06 58.61 365.26 52.70 361.49 48.51 C 357.19 43.94 350.21 43.12 344.33 44.34 Z"
       id="path15" />
    <path
       fill="#000000"
       opacity="1.00"
       d=" M 391.59 38.27 C 402.36 35.44 414.14 34.20 424.79 38.12 C 430.59 40.18 434.83 45.84 434.81 52.06 C 435.05 65.65 434.85 79.25 434.91 92.85 C 433.03 92.85 431.16 92.84 429.28 92.83 C 428.14 90.97 427.01 89.10 425.90 87.22 C 417.20 92.82 405.87 94.58 396.09 90.93 C 383.64 86.10 383.85 65.05 396.33 60.36 C 405.39 56.77 415.41 58.20 424.87 58.99 C 424.72 55.32 425.58 51.07 423.00 48.02 C 420.31 44.90 415.92 44.24 412.05 43.88 C 405.12 43.50 398.18 44.69 391.53 46.56 C 391.52 43.80 391.52 41.04 391.59 38.27 M 397.98 71.03 C 395.69 75.71 397.31 83.00 403.04 84.16 C 410.60 85.60 418.74 83.67 424.92 79.09 C 424.84 75.15 424.87 71.22 424.89 67.28 C 419.01 66.47 413.05 65.98 407.11 66.32 C 403.64 66.59 399.79 67.80 397.98 71.03 Z"
       id="path17" />
    <path
       fill="#000000"
       opacity="1.00"
       d=" M 78.49 75.65 C 82.17 73.56 87.33 76.71 86.80 81.00 C 86.76 85.25 81.14 87.95 77.86 85.16 C 74.45 82.96 74.87 77.41 78.49 75.65 M 79.33 78.45 C 76.52 80.55 80.01 85.20 82.84 82.97 C 85.93 80.87 82.23 75.76 79.33 78.45 Z"
       id="path19" />
  </g>
  <g
     id="#3672a5ff">
    <path
       fill="#3672a5"
       opacity="1.00"
       d=" M 16.05 5.10 C 20.43 3.12 25.33 3.57 30.00 3.55 C 51.72 3.55 73.43 3.49 95.15 3.61 C 94.61 9.20 95.66 14.87 94.58 20.41 C 93.18 26.98 86.76 32.15 80.00 31.87 C 73.66 31.91 67.32 31.85 60.98 31.97 C 55.66 32.07 50.23 31.40 45.02 32.75 C 37.83 34.87 31.44 41.25 30.99 48.98 C 30.71 53.85 30.92 58.72 30.86 63.59 C 24.88 63.31 18.21 64.83 12.90 61.29 C 6.87 57.33 5.02 49.83 3.81 43.17 C 2.01 34.42 2.95 25.32 5.52 16.83 C 7.11 11.62 11.00 7.17 16.05 5.10 Z"
       id="path22" />
  </g>
  <g
     id="#ffd147ff">
    <path
       fill="#ffd147"
       opacity="1.00"
       d=" M 98.20 3.57 C 103.41 3.79 108.74 2.98 113.86 4.17 C 118.68 5.51 121.78 9.95 123.40 14.43 C 127.60 26.76 128.67 40.80 123.11 52.89 C 121.21 58.19 117.04 63.54 110.91 63.60 C 95.34 63.77 79.77 63.63 64.20 63.69 C 64.19 64.62 64.18 66.50 64.18 67.44 C 74.26 67.45 84.34 67.46 94.42 67.44 C 94.30 71.62 94.64 75.82 94.23 79.99 C 93.36 83.74 91.42 87.11 89.67 90.51 C 82.47 103.56 74.05 115.88 65.66 128.19 C 56.22 115.88 47.07 103.31 38.95 90.08 C 36.73 86.01 33.68 81.91 33.80 77.05 C 33.87 68.03 33.73 59.00 33.86 49.98 C 34.07 42.17 41.16 35.33 48.99 35.49 C 59.29 35.42 69.60 35.56 79.90 35.46 C 88.80 35.22 96.88 27.90 98.01 19.07 C 98.49 13.92 98.12 8.73 98.20 3.57 M 78.49 75.65 C 74.87 77.41 74.45 82.96 77.86 85.16 C 81.14 87.95 86.76 85.25 86.80 81.00 C 87.33 76.71 82.17 73.56 78.49 75.65 Z"
       id="path25" />
  </g>
</svg>
